<mxfile host="app.diagrams.net" modified="2023-09-20T17:20:46.400Z" agent="Mozilla/5.0 (Windows NT 10.0; Win64; x64) AppleWebKit/537.36 (KHTML, like Gecko) Chrome/117.0.0.0 Safari/537.36 Edg/117.0.2045.36" etag="QX_bmGsqwKhwaAN20h39" version="21.7.5" type="device">
  <diagram name="Page-1" id="DDsUomqdx2QwWEt2GXJh">
    <mxGraphModel dx="379" dy="167" grid="1" gridSize="10" guides="1" tooltips="1" connect="1" arrows="1" fold="1" page="1" pageScale="1" pageWidth="1654" pageHeight="1169" math="0" shadow="0">
      <root>
        <mxCell id="0" />
        <mxCell id="1" parent="0" />
        <mxCell id="7BlxXxui7kDxEHt6AzfD-36" style="edgeStyle=orthogonalEdgeStyle;rounded=0;orthogonalLoop=1;jettySize=auto;html=1;exitX=0.001;exitY=0.843;exitDx=0;exitDy=0;entryX=0;entryY=0.25;entryDx=0;entryDy=0;exitPerimeter=0;" parent="1" source="7BlxXxui7kDxEHt6AzfD-6" target="7BlxXxui7kDxEHt6AzfD-9" edge="1">
          <mxGeometry relative="1" as="geometry">
            <Array as="points">
              <mxPoint x="80" y="191" />
              <mxPoint x="60" y="190" />
              <mxPoint x="60" y="90" />
              <mxPoint x="280" y="90" />
              <mxPoint x="280" y="113" />
            </Array>
          </mxGeometry>
        </mxCell>
        <mxCell id="7BlxXxui7kDxEHt6AzfD-5" value="" style="swimlane;startSize=0;" parent="1" vertex="1">
          <mxGeometry x="90" y="120" width="120" height="80" as="geometry" />
        </mxCell>
        <mxCell id="7BlxXxui7kDxEHt6AzfD-16" value="&lt;b&gt;&lt;font style=&quot;font-size: 14px;&quot;&gt;College&lt;/font&gt;&lt;/b&gt;" style="text;html=1;strokeColor=none;fillColor=none;align=center;verticalAlign=middle;whiteSpace=wrap;rounded=0;" parent="7BlxXxui7kDxEHt6AzfD-5" vertex="1">
          <mxGeometry y="-30" width="60" height="30" as="geometry" />
        </mxCell>
        <mxCell id="7BlxXxui7kDxEHt6AzfD-8" value="&lt;b&gt;&lt;font style=&quot;font-size: 14px;&quot;&gt;Department&lt;/font&gt;&lt;/b&gt;" style="text;html=1;strokeColor=none;fillColor=none;align=center;verticalAlign=middle;whiteSpace=wrap;rounded=0;" parent="1" vertex="1">
          <mxGeometry x="200" y="220" width="60" height="30" as="geometry" />
        </mxCell>
        <mxCell id="7BlxXxui7kDxEHt6AzfD-38" style="edgeStyle=orthogonalEdgeStyle;rounded=0;orthogonalLoop=1;jettySize=auto;html=1;exitX=-0.007;exitY=0.922;exitDx=0;exitDy=0;exitPerimeter=0;" parent="1" source="7BlxXxui7kDxEHt6AzfD-9" edge="1">
          <mxGeometry relative="1" as="geometry">
            <mxPoint x="190" y="280" as="targetPoint" />
            <Array as="points">
              <mxPoint x="319" y="186" />
              <mxPoint x="319" y="190" />
              <mxPoint x="320" y="210" />
              <mxPoint x="140" y="210" />
              <mxPoint x="140" y="280" />
            </Array>
          </mxGeometry>
        </mxCell>
        <mxCell id="7BlxXxui7kDxEHt6AzfD-9" value="" style="swimlane;startSize=0;" parent="1" vertex="1">
          <mxGeometry x="440" y="85" width="110" height="110" as="geometry" />
        </mxCell>
        <mxCell id="7BlxXxui7kDxEHt6AzfD-10" value="&lt;b&gt;&lt;u&gt;Id&lt;/u&gt;&lt;/b&gt;&lt;br&gt;Rank&lt;br&gt;IName&lt;br&gt;IOffice&lt;br&gt;IPhone&lt;br&gt;I_DCode" style="text;html=1;strokeColor=none;fillColor=none;align=left;verticalAlign=middle;whiteSpace=wrap;rounded=0;" parent="7BlxXxui7kDxEHt6AzfD-9" vertex="1">
          <mxGeometry y="50" width="70" height="30" as="geometry" />
        </mxCell>
        <mxCell id="7BlxXxui7kDxEHt6AzfD-11" value="&lt;b&gt;&lt;font style=&quot;font-size: 14px;&quot;&gt;Instructor&lt;/font&gt;&lt;/b&gt;" style="text;html=1;strokeColor=none;fillColor=none;align=center;verticalAlign=middle;whiteSpace=wrap;rounded=0;" parent="1" vertex="1">
          <mxGeometry x="450" y="55" width="60" height="30" as="geometry" />
        </mxCell>
        <mxCell id="7BlxXxui7kDxEHt6AzfD-13" value="" style="swimlane;startSize=0;" parent="1" vertex="1">
          <mxGeometry x="190" y="250" width="130" height="100" as="geometry" />
        </mxCell>
        <mxCell id="7BlxXxui7kDxEHt6AzfD-15" value="&lt;b&gt;&lt;u&gt;DCode&lt;/u&gt;&lt;/b&gt;&lt;br&gt;DName&lt;br&gt;DOffice&lt;br&gt;DPhone&lt;br&gt;D_CName" style="text;html=1;strokeColor=none;fillColor=none;align=left;verticalAlign=middle;whiteSpace=wrap;rounded=0;" parent="7BlxXxui7kDxEHt6AzfD-13" vertex="1">
          <mxGeometry y="30" width="60" height="50" as="geometry" />
        </mxCell>
        <mxCell id="7BlxXxui7kDxEHt6AzfD-40" style="edgeStyle=orthogonalEdgeStyle;rounded=0;orthogonalLoop=1;jettySize=auto;html=1;exitX=0;exitY=0.931;exitDx=0;exitDy=0;exitPerimeter=0;" parent="1" source="7BlxXxui7kDxEHt6AzfD-17" edge="1">
          <mxGeometry relative="1" as="geometry">
            <mxPoint x="190" y="280" as="targetPoint" />
            <Array as="points">
              <mxPoint x="120" y="372" />
              <mxPoint x="120" y="280" />
            </Array>
          </mxGeometry>
        </mxCell>
        <mxCell id="7BlxXxui7kDxEHt6AzfD-17" value="" style="swimlane;startSize=0;" parent="1" vertex="1">
          <mxGeometry x="610" y="270" width="140" height="110" as="geometry" />
        </mxCell>
        <mxCell id="7BlxXxui7kDxEHt6AzfD-18" value="&lt;b&gt;&lt;u&gt;CCode&lt;/u&gt;&lt;/b&gt;&lt;br&gt;Credits&lt;br&gt;CoName&lt;br&gt;Level&lt;br&gt;CDesc&lt;br&gt;Co_Dcode" style="text;html=1;strokeColor=none;fillColor=none;align=left;verticalAlign=middle;whiteSpace=wrap;rounded=0;" parent="7BlxXxui7kDxEHt6AzfD-17" vertex="1">
          <mxGeometry y="50" width="60" height="30" as="geometry" />
        </mxCell>
        <mxCell id="7BlxXxui7kDxEHt6AzfD-19" value="&lt;font style=&quot;font-size: 14px;&quot;&gt;&lt;b&gt;Course&lt;/b&gt;&lt;/font&gt;" style="text;html=1;strokeColor=none;fillColor=none;align=center;verticalAlign=middle;whiteSpace=wrap;rounded=0;" parent="7BlxXxui7kDxEHt6AzfD-17" vertex="1">
          <mxGeometry y="-30" width="60" height="30" as="geometry" />
        </mxCell>
        <mxCell id="7BlxXxui7kDxEHt6AzfD-20" value="" style="swimlane;startSize=0;" parent="1" vertex="1">
          <mxGeometry x="405" y="510" width="150" height="120" as="geometry" />
        </mxCell>
        <mxCell id="7BlxXxui7kDxEHt6AzfD-21" value="&lt;b&gt;&lt;u&gt;Sid&lt;/u&gt;&lt;/b&gt;&lt;br&gt;DOB&lt;br&gt;SName&lt;br&gt;Addr&lt;br&gt;SPhone&lt;br&gt;Major&lt;br&gt;S_DCode" style="text;html=1;strokeColor=none;fillColor=none;align=left;verticalAlign=middle;whiteSpace=wrap;rounded=0;" parent="7BlxXxui7kDxEHt6AzfD-20" vertex="1">
          <mxGeometry y="50" width="60" height="30" as="geometry" />
        </mxCell>
        <mxCell id="7BlxXxui7kDxEHt6AzfD-22" value="&lt;b&gt;&lt;font style=&quot;font-size: 14px;&quot;&gt;Student&lt;/font&gt;&lt;/b&gt;" style="text;html=1;strokeColor=none;fillColor=none;align=center;verticalAlign=middle;whiteSpace=wrap;rounded=0;" parent="1" vertex="1">
          <mxGeometry x="405" y="480" width="60" height="30" as="geometry" />
        </mxCell>
        <mxCell id="vnBFLVDnvgL_jckpLrCJ-1" style="edgeStyle=orthogonalEdgeStyle;rounded=0;orthogonalLoop=1;jettySize=auto;html=1;exitX=-0.001;exitY=0.953;exitDx=0;exitDy=0;entryX=0;entryY=0.25;entryDx=0;entryDy=0;exitPerimeter=0;" parent="1" source="7BlxXxui7kDxEHt6AzfD-23" target="7BlxXxui7kDxEHt6AzfD-9" edge="1">
          <mxGeometry relative="1" as="geometry">
            <mxPoint x="410" y="110" as="targetPoint" />
            <Array as="points">
              <mxPoint x="930" y="283" />
              <mxPoint x="930" y="40" />
              <mxPoint x="420" y="40" />
              <mxPoint x="420" y="113" />
            </Array>
          </mxGeometry>
        </mxCell>
        <mxCell id="vnBFLVDnvgL_jckpLrCJ-2" style="edgeStyle=orthogonalEdgeStyle;rounded=0;orthogonalLoop=1;jettySize=auto;html=1;exitX=-0.001;exitY=0.859;exitDx=0;exitDy=0;entryX=0;entryY=0.25;entryDx=0;entryDy=0;exitPerimeter=0;" parent="1" source="7BlxXxui7kDxEHt6AzfD-23" target="7BlxXxui7kDxEHt6AzfD-17" edge="1">
          <mxGeometry relative="1" as="geometry">
            <mxPoint x="670" y="200" as="targetPoint" />
            <Array as="points">
              <mxPoint x="990" y="270" />
              <mxPoint x="870" y="270" />
              <mxPoint x="870" y="230" />
              <mxPoint x="590" y="230" />
              <mxPoint x="590" y="297" />
            </Array>
          </mxGeometry>
        </mxCell>
        <mxCell id="7BlxXxui7kDxEHt6AzfD-23" value="" style="swimlane;startSize=0;" parent="1" vertex="1">
          <mxGeometry x="990" y="140" width="160" height="150" as="geometry" />
        </mxCell>
        <mxCell id="7BlxXxui7kDxEHt6AzfD-24" value="&lt;b&gt;&lt;u&gt;SecId&lt;/u&gt;&lt;/b&gt;&lt;br&gt;SecNo&lt;br&gt;Sem&lt;br&gt;Year&lt;br&gt;Blgd&lt;br&gt;RoomNo&lt;br&gt;DaysTime&lt;br&gt;Sec_CCode&lt;br&gt;Instructor_Id" style="text;html=1;strokeColor=none;fillColor=none;align=left;verticalAlign=middle;whiteSpace=wrap;rounded=0;" parent="7BlxXxui7kDxEHt6AzfD-23" vertex="1">
          <mxGeometry y="70" width="60" height="30" as="geometry" />
        </mxCell>
        <mxCell id="7BlxXxui7kDxEHt6AzfD-25" value="&lt;font style=&quot;font-size: 14px;&quot;&gt;&lt;b&gt;Section&lt;/b&gt;&lt;/font&gt;" style="text;html=1;strokeColor=none;fillColor=none;align=center;verticalAlign=middle;whiteSpace=wrap;rounded=0;" parent="1" vertex="1">
          <mxGeometry x="990" y="110" width="60" height="30" as="geometry" />
        </mxCell>
        <mxCell id="-lt9t9PKv-pmjRa241jQ-6" style="edgeStyle=orthogonalEdgeStyle;rounded=0;orthogonalLoop=1;jettySize=auto;html=1;exitX=0;exitY=0;exitDx=0;exitDy=0;entryX=-0.006;entryY=0.166;entryDx=0;entryDy=0;entryPerimeter=0;" edge="1" parent="1" source="7BlxXxui7kDxEHt6AzfD-31" target="7BlxXxui7kDxEHt6AzfD-20">
          <mxGeometry relative="1" as="geometry">
            <mxPoint x="380" y="530" as="targetPoint" />
            <Array as="points">
              <mxPoint x="750" y="560" />
              <mxPoint x="750" y="450" />
              <mxPoint x="380" y="450" />
              <mxPoint x="380" y="530" />
            </Array>
          </mxGeometry>
        </mxCell>
        <mxCell id="7BlxXxui7kDxEHt6AzfD-30" value="" style="swimlane;startSize=0;" parent="1" vertex="1">
          <mxGeometry x="820" y="540" width="100" height="60" as="geometry" />
        </mxCell>
        <mxCell id="7BlxXxui7kDxEHt6AzfD-31" value="&lt;b&gt;&lt;u&gt;Sid&lt;/u&gt;&lt;/b&gt;&lt;br&gt;&lt;b&gt;&lt;u&gt;SecId&lt;/u&gt;&lt;/b&gt;&lt;br&gt;Grade" style="text;html=1;strokeColor=none;fillColor=none;align=left;verticalAlign=middle;whiteSpace=wrap;rounded=0;" parent="7BlxXxui7kDxEHt6AzfD-30" vertex="1">
          <mxGeometry y="20" width="60" height="30" as="geometry" />
        </mxCell>
        <mxCell id="7BlxXxui7kDxEHt6AzfD-32" value="&lt;font style=&quot;font-size: 14px;&quot;&gt;&lt;b&gt;Takes&lt;/b&gt;&lt;/font&gt;" style="text;html=1;strokeColor=none;fillColor=none;align=center;verticalAlign=middle;whiteSpace=wrap;rounded=0;" parent="1" vertex="1">
          <mxGeometry x="810" y="510" width="60" height="30" as="geometry" />
        </mxCell>
        <mxCell id="7BlxXxui7kDxEHt6AzfD-33" value="" style="swimlane;startSize=0;" parent="1" vertex="1">
          <mxGeometry x="180" y="430" width="80" height="80" as="geometry" />
        </mxCell>
        <mxCell id="7BlxXxui7kDxEHt6AzfD-34" value="&lt;b&gt;&lt;u&gt;ID&lt;/u&gt;&lt;/b&gt;&lt;br&gt;&lt;b style=&quot;border-color: var(--border-color);&quot;&gt;&lt;u style=&quot;border-color: var(--border-color);&quot;&gt;DCode&lt;/u&gt;&lt;/b&gt;&lt;br&gt;&lt;div style=&quot;&quot;&gt;&lt;span style=&quot;background-color: initial;&quot;&gt;CStartDate&lt;/span&gt;&lt;/div&gt;" style="text;html=1;strokeColor=none;fillColor=none;align=left;verticalAlign=middle;whiteSpace=wrap;rounded=0;" parent="7BlxXxui7kDxEHt6AzfD-33" vertex="1">
          <mxGeometry y="25" width="60" height="30" as="geometry" />
        </mxCell>
        <mxCell id="7BlxXxui7kDxEHt6AzfD-35" value="&lt;font style=&quot;font-size: 14px;&quot;&gt;&lt;b&gt;Chair&lt;/b&gt;&lt;/font&gt;" style="text;html=1;strokeColor=none;fillColor=none;align=center;verticalAlign=middle;whiteSpace=wrap;rounded=0;" parent="1" vertex="1">
          <mxGeometry x="170" y="400" width="60" height="30" as="geometry" />
        </mxCell>
        <mxCell id="7BlxXxui7kDxEHt6AzfD-6" value="&lt;b&gt;&lt;u&gt;&lt;br&gt;CName&lt;/u&gt;&lt;/b&gt;&lt;br&gt;COffice&lt;br&gt;CPhone&lt;br&gt;Dean_Id" style="text;html=1;align=left;verticalAlign=middle;resizable=0;points=[];autosize=1;strokeColor=none;fillColor=none;" parent="1" vertex="1">
          <mxGeometry x="90" y="115" width="70" height="90" as="geometry" />
        </mxCell>
        <mxCell id="7BlxXxui7kDxEHt6AzfD-39" style="edgeStyle=orthogonalEdgeStyle;rounded=0;orthogonalLoop=1;jettySize=auto;html=1;exitX=0.002;exitY=0.938;exitDx=0;exitDy=0;entryX=-0.013;entryY=0.313;entryDx=0;entryDy=0;entryPerimeter=0;exitPerimeter=0;" parent="1" source="7BlxXxui7kDxEHt6AzfD-13" target="7BlxXxui7kDxEHt6AzfD-6" edge="1">
          <mxGeometry relative="1" as="geometry">
            <Array as="points">
              <mxPoint x="190" y="334" />
              <mxPoint x="20" y="334" />
              <mxPoint x="20" y="143" />
            </Array>
          </mxGeometry>
        </mxCell>
        <mxCell id="7BlxXxui7kDxEHt6AzfD-45" style="edgeStyle=orthogonalEdgeStyle;rounded=0;orthogonalLoop=1;jettySize=auto;html=1;exitX=0;exitY=0.5;exitDx=0;exitDy=0;entryX=-0.001;entryY=0.196;entryDx=0;entryDy=0;entryPerimeter=0;" parent="1" source="7BlxXxui7kDxEHt6AzfD-31" target="7BlxXxui7kDxEHt6AzfD-23" edge="1">
          <mxGeometry relative="1" as="geometry">
            <mxPoint x="580" y="180" as="targetPoint" />
            <Array as="points">
              <mxPoint x="730" y="575" />
              <mxPoint x="730" y="620" />
              <mxPoint x="960" y="620" />
              <mxPoint x="960" y="169" />
            </Array>
          </mxGeometry>
        </mxCell>
        <mxCell id="7BlxXxui7kDxEHt6AzfD-47" style="edgeStyle=orthogonalEdgeStyle;rounded=0;orthogonalLoop=1;jettySize=auto;html=1;entryX=0;entryY=0;entryDx=0;entryDy=0;exitX=0;exitY=0.5;exitDx=0;exitDy=0;" parent="1" target="7BlxXxui7kDxEHt6AzfD-15" edge="1">
          <mxGeometry relative="1" as="geometry">
            <mxPoint x="119.96999999999998" y="290.00000000000006" as="targetPoint" />
            <mxPoint x="179.99" y="480" as="sourcePoint" />
            <Array as="points">
              <mxPoint x="180" y="470" />
              <mxPoint x="60" y="470" />
              <mxPoint x="60" y="280" />
            </Array>
          </mxGeometry>
        </mxCell>
        <mxCell id="7BlxXxui7kDxEHt6AzfD-48" style="edgeStyle=orthogonalEdgeStyle;rounded=0;orthogonalLoop=1;jettySize=auto;html=1;exitX=0;exitY=0;exitDx=0;exitDy=0;entryX=0;entryY=0.25;entryDx=0;entryDy=0;" parent="1" source="7BlxXxui7kDxEHt6AzfD-34" target="7BlxXxui7kDxEHt6AzfD-9" edge="1">
          <mxGeometry relative="1" as="geometry">
            <mxPoint x="280" y="110" as="targetPoint" />
            <Array as="points">
              <mxPoint x="160" y="455" />
              <mxPoint x="160" y="388" />
              <mxPoint x="370" y="388" />
              <mxPoint x="370" y="113" />
              <mxPoint x="390" y="113" />
            </Array>
          </mxGeometry>
        </mxCell>
      </root>
    </mxGraphModel>
  </diagram>
</mxfile>
